<?xml version="1.0" encoding="UTF-8"?>
<svg id="Layer_2" data-name="Layer 2" xmlns="http://www.w3.org/2000/svg" viewBox="0 0 417.98 158.99">
  <defs>
    <style>
      .cls-1 {
        fill: #fff;
      }
    </style>
  </defs>
  <g id="Design">
    <path id="Logo_Game" data-name="Logo Game" class="cls-1" d="M13.5,21.68L0,0h10.75l8.3,14.68L27.66,0h10.75l-13.53,21.68h-11.37ZM39.36,21.68v-7.19h14.4v-7.31h-14.4V0h38.4v7.19h-14.4v7.31h14.4v7.19h-38.4ZM80.9,21.68V0h30.88c2.21,0,3.9.49,5.08,1.47,1.18.98,1.77,2.33,1.77,4.04,0,1.32-.4,2.4-1.21,3.22-.81.83-2.06,1.39-3.78,1.7v.62c1.88.17,3.29.7,4.24,1.6.95.9,1.42,2.06,1.42,3.48v5.54h-10.03v-5.23c0-.37-.11-.67-.34-.9-.23-.23-.54-.34-.93-.34h-17.5v6.47h-9.6ZM90.5,9.32h16.88c.39,0,.7-.12.93-.37.23-.25.34-.58.34-.99,0-.45-.12-.79-.37-1.02-.25-.23-.55-.34-.9-.34h-16.88v2.73ZM134.66,21.68V7.19h-14.4V0h38.4v7.19h-14.4v14.49h-9.6ZM179.72,22.18c-12.8,0-19.2-4.12-19.2-12.36V0h9.6v9.51c0,3.7,3.2,5.54,9.6,5.54s9.6-1.85,9.6-5.54V0h9.6v9.82c0,8.24-6.4,12.36-19.2,12.36ZM202.11,21.68V0h38.4v6.26h-28.8v1.92h25.46v5.33h-25.46v1.92h28.8v6.26h-38.4ZM249.99,21.68l13.53-21.68h11.37l13.5,21.68h-10.31l-1.86-3.38h-13.97l-1.95,3.38h-10.31ZM266.38,11.12l-1.05,1.86h7.96l-1.02-1.86-2.57-5.26h-.62l-2.69,5.26ZM290.01,21.68V0h9.48l19.33,11.95V0h9.6v21.68h-9.48l-19.33-11.95v11.95h-9.6ZM332,21.68V0h25.67c2.58,0,4.83.43,6.74,1.3,1.91.87,3.39,2.1,4.43,3.69,1.04,1.59,1.56,3.48,1.56,5.67v.37c0,2.19-.52,4.08-1.56,5.67-1.04,1.59-2.52,2.82-4.43,3.69-1.91.87-4.16,1.3-6.74,1.3h-25.67ZM341.61,14.68h15.14c1.09,0,1.97-.33,2.63-.98.66-.65.99-1.54.99-2.68v-.37c0-1.14-.33-2.03-.99-2.68-.66-.65-1.54-.98-2.63-.98h-15.14v7.68ZM379.58,21.68l13.53-21.68h11.37l13.5,21.68h-10.31l-1.86-3.38h-13.97l-1.95,3.38h-10.31ZM395.96,11.12l-1.05,1.86h7.96l-1.02-1.86-2.57-5.26h-.62l-2.69,5.26ZM299.44,29.22h-22.36l-2.61,56.55h.44l-1.49,32.42h-.44l-.19,4.11h-1.11l-.19-4.11h.44l-1.49-32.42h-.44l-2.61-56.55h-22.36v56.55h.44v32.42h-.44v40.8h13.1v-40.8h.44v-32.42h-.44v-22.14h2.27l1.18,22.14h.44l1.72,32.42h-.44l2.17,40.8h13.56l2.17-40.8h.44l1.72-32.42h-.44l1.18-22.14h2.27l-.26,22.14h.44l-.38,32.42h-.44l-.48,40.8h14.22v-40.8h.44v-32.42h-.44V29.22ZM358.33,29.22h-22.36l-2.61,56.55h.44l-1.49,32.42h-.44l-.19,4.11h-1.11l-.19-4.11h.44l-1.49-32.42h-.44l-2.61-56.55h-22.36v56.55h.44v32.42h-.44v40.8h13.1v-40.8h.44v-32.42h-.44v-22.14h2.27l1.18,22.14h.44l1.72,32.42h-.44l2.17,40.8h13.56l2.17-40.8h.44l1.72-32.42h-.44l1.18-22.14h2.27v22.14h.44v32.42h-.44v40.8h13.1v-40.8h.44v-32.42h-.44V29.22ZM362.8,85.77h.44v32.42h-.44v40.8h20.47v-15.34h-7.37v-25.46h.44v-16.92h6.55v-15.35h-6.55v-.16h-.44v-41.2h7.37v-15.35h-20.47v56.55ZM57.9,85.77h.44v32.42h-.44v40.8h20.47v-15.34h-7.37v-25.46h.44v-16.92h6.55v-15.35h-6.55v-.16h-.44v-41.2h7.37v-15.35h-20.47v56.55ZM204.59,29.22h-13.1v56.53h-3.58V29.22h-13.1v56.55h.44v32.42h-.44v40.8h13.1v-40.8h.44v-17.1h3.58v17.1h-.44v40.8h13.1v-40.8h.44v-32.42h-.44V29.22ZM112.28,42.95c0-3.16-1.09-6.22-3.09-8.67-2.61-3.2-6.51-5.05-10.64-5.05h-16.05v56.55h.44v32.42h-.44v40.8h16.05c4.12,0,8.03-1.86,10.64-5.05h0c2-2.45,3.09-5.51,3.09-8.67v-27.08h.44v-32.42h-.44v-42.83ZM99.62,118.19h-.44v25.46h-3.58v-25.46h.44v-32.42h-.44v-41.2h3.58v41.2h.44v32.42ZM150.25,85.77h.44v32.42h-.44v40.8h20.47v-15.34h-7.37v-25.46h.44v-16.92h6.55v-15.35h-6.55v-.16h-.44v-41.2h7.37v-15.35h-20.47v56.55ZM239.94,118.19l-1.52-32.42h-.44l-2.66-56.55h-21.01l-2.66,56.55h.44l-1.52,32.42h-.44l-1.92,40.8h13.1l.79-35.74h5.43l.79,35.74h13.1l-1.92-40.8h.44ZM223.84,44.57h1.94l.91,41.2h.44l.49,22.14h-4.75l.49-22.14h-.44l.91-41.2ZM15.71,85.77h-.44l-2.17-1.99v-39.21h3.25v33.06h13.1v-33.68c0-8.13-6.59-14.72-14.72-14.72h0C6.59,29.22,0,35.82,0,43.95v41.17c0,.22,0,.44.02.65h.44c.16,2.38,1.17,4.63,2.87,6.32l13.46,12.34v13.76h-.44v25.46h-3.25v-25.46h.44v-7.63H.44v7.63H0v26.08C0,152.4,6.59,158.99,14.72,158.99h0c8.13,0,14.72-6.59,14.72-14.72v-26.08h.44v-15.1c0-2.62-1.04-5.13-2.89-6.98l-11.29-10.35ZM132.27,101.27h1.56v16.92h-.44v25.46h-3.91v-25.46h.44v-32.42h-.44v-41.2h3.58v33.06h13.1v-33.52c0-8.22-6.67-14.89-14.89-14.89h0c-8.22,0-14.89,6.67-14.89,14.89l.07,41.66h.44l.06,32.42h-.44l.05,31.26c0,5.27,4.29,9.54,9.56,9.54h0c5.28,0,9.56-4.28,9.56-9.56v-.03h.98l3.41,9.59h6.08v-40.8h.44v-32.26h-14.33v15.35ZM46.83,118.19h.44v-32.42h-.44V29.22h-13.1v56.55h.44v32.42h-.44v40.8h20.06v-15.34h-6.96v-25.46ZM416.14,118.19h.44l-.75-16.92-1.97-4.31c.23-.24.45-.49.66-.75h0c1.91-2.34,2.99-5.25,3.08-8.27h.01s0-2.18,0-2.18h-.44v-22.33s0-20.5,0-20.5c0-3.16-1.09-6.22-3.09-8.67-2.61-3.2-6.51-5.05-10.64-5.05h-16.05s0,0,0,0v56.55h.44v32.42h-.44v40.8h13.1v-40.8h.44v-16.92h2.35l.63,16.92h-.44l1.51,40.8h12.97l-1.8-40.8ZM400.92,85.93v-.16h-.44v-41.2h3.58v41.2h.44v.16h-3.58Z"/>
  </g>
</svg>